<svg xmlns="http://www.w3.org/2000/svg" 
version="1.1" xmlns:xlink="http://www.w3.org/1999/xlink" 
xmlns:svgjs="http://svgjs.dev/svgjs" width="1000" 
height="1000" viewBox="0 0 1000 1000"><rect width="1000"
 height="1000" fill="rgba(60, 51, 80, 0)"></rect>
 <g transform="matrix(0.7,0,0,0.7,150,106.25)">
 <svg viewBox="0 0 320 360" data-background-color="#ffffff" preserveAspectRatio="xMidYMid meet" height="1125" width="1000" xmlns="http://www.w3.org/2000/svg" xmlns:xlink="http://www.w3.org/1999/xlink"><g id="tight-bounds" transform="matrix(1,0,0,1,0,0)"><svg viewBox="0 0 320 360" height="360" width="320"><g><svg></svg></g><g><svg viewBox="0 0 320 360" height="360" width="320"><g><path d="M320 187.111c0-45.764-20.238-86.866-52.203-114.908-28.043-31.964-69.145-52.203-114.908-52.203-84.302 0-152.889 68.587-152.889 152.889 0 45.753 20.231 86.848 52.185 114.891 28.043 31.975 69.152 52.22 114.926 52.22 0.299 0 0.59-0.021 0.889-0.021 0.299 0 0.59 0.021 0.889 0.021 83.456 0 151.111-67.655 151.111-151.111 0-0.299-0.021-0.59-0.021-0.889 0-0.299 0.021-0.59 0.021-0.889zM59.833 263.097c-15.093-21.255-24.071-47.143-24.256-75.097 0.48-72.928 59.492-131.943 132.423-132.423 27.954 0.185 53.845 9.163 75.097 24.256 24.366 23.627 39.57 56.64 39.57 93.056 0 71.559-58.219 129.778-129.778 129.778-36.416 0-69.429-15.204-93.056-39.57zM3.556 172.889c0-82.343 66.99-149.333 149.333-149.333 35.051 0 67.292 12.167 92.8 32.462-22.98-13.824-49.863-21.796-78.578-21.796-84.302 0-152.889 68.587-152.889 152.889 0 28.708 7.968 55.584 21.785 78.56-20.288-25.5-32.452-57.739-32.451-92.782zM167.111 318.667c-35.84 0-68.363-14.418-92.107-37.743 21.952 15.89 48.864 25.298 77.885 25.298 73.522 0 133.333-59.812 133.333-133.333 0-29.02-9.408-55.932-25.298-77.885 23.324 23.744 37.742 56.267 37.743 92.107 0 72.54-59.015 131.556-131.556 131.556z" fill="#f5ba41" fill-rule="nonzero" stroke="none" stroke-width="1" stroke-linecap="butt" stroke-linejoin="miter" stroke-miterlimit="10" stroke-dasharray="" stroke-dashoffset="0" font-family="none" font-weight="none" font-size="none" text-anchor="none" style="mix-blend-mode: normal" data-fill-palette-color="tertiary"></path></g><g transform="matrix(1,0,0,1,64,134.56972901520157)"><svg viewBox="0 0 192 90.86054196959684" height="90.86054196959684" width="192"><g><svg viewBox="0 0 192 90.86054196959684" height="90.86054196959684" width="192"><g><svg viewBox="0 0 192 90.86054196959684" height="90.86054196959684" width="192"><g><svg viewBox="0 0 192 90.86054196959684" height="90.86054196959684" width="192"><g><svg viewBox="0 0 192 90.86054196959684" height="90.86054196959684" width="192"><g><svg viewBox="0 0 192 90.86054196959684" height="90.86054196959684" width="192"><g transform="matrix(1,0,0,1,0,0)"><svg width="192" viewBox="0 -35.8 75.65 35.8" height="90.86054196959684" data-palette-color="#f5ba41"><path d="M0-2.15L4.85-2.15 4.85-34.95 10.75-34.95 10.75-17.9 26.75-34.95 34.25-34.95 20.2-19.65 32.9-2.1 32.9-2.15 37.75-2.15 37.75 0 27.45 0 15.85-15.3 10.75-9.8 10.75 0 0 0 0-2.15ZM64.2-2.15L75.65-2.15 75.65 0 33.65 0 33.65-2.15 45.1-2.15Q41-4.5 38.62-8.6 36.25-12.7 36.25-17.75L36.25-17.75Q36.25-25.45 41.55-30.63 46.85-35.8 54.65-35.8 62.45-35.8 67.75-30.63 73.05-25.45 73.05-17.75L73.05-17.75Q73.05-12.75 70.67-8.6 68.3-4.45 64.2-2.15L64.2-2.15ZM63.42-26.7Q59.85-30.4 54.65-30.4 49.45-30.4 45.87-26.7 42.3-23 42.3-17.73 42.3-12.45 45.87-8.75 49.45-5.05 54.65-5.05 59.85-5.05 63.42-8.75 67-12.45 67-17.73 67-23 63.42-26.7Z" opacity="1" transform="matrix(1,0,0,1,0,0)" fill="#ffffff" class="undefined-text-0" data-fill-palette-color="primary" id="text-0"></path></svg></g></svg></g></svg></g></svg></g><g></g></svg></g></svg></g></svg></g></svg></g><defs></defs></svg><rect width="320" height="360" fill="none" stroke="none" visibility="hidden"></rect></g></svg></g></svg>